# xmcd CD database file
#
# Track frame offsets:
#	150
#	19579
#	33257
#	53586
#	65736
#	89361
#	109082
#	121493
#	139430
#
# Disc length: 2357 seconds
#
# Revision: 5
# Processed by: cddbd v1.5.2PL0 Copyright (c) Steve Scherf et al.
# Submitted via: jetAudio 7
#
DISCID=79093309
DTITLE=Breakout - Karate
DYEAR=1972
DGENRE=Blues
TTITLE0=Daje ci prog
TTITLE1=Takie moje miasto jest
TTITLE2=Noca, puka ktos
TTITLE3=Powiedzmy to
TTITLE4=Rzeka dziecinstwa
TTITLE5=Jest gdzies taki dom
TTITLE6=Sliska dzisiaj droga
TTITLE7=Zaprowadzic Ciebie musze tam
TTITLE8=Karate
EXTD=YEAR: 1972
EXTT0=
EXTT1=
EXTT2=
EXTT3=
EXTT4=
EXTT5=
EXTT6=
EXTT7=
EXTT8=
PLAYORDER=
